<svg width="1200" height="800" viewBox="0 0 1200 800" xmlns="http://www.w3.org/2000/svg">
  <rect width="1200" height="800" rx="40" fill="#eef6ff"/>
  <circle cx="980" cy="180" r="140" fill="#38bdf8" opacity="0.2"/>
  <rect x="180" y="180" width="760" height="420" rx="30" fill="#ffffff"/>
  <rect x="250" y="240" width="360" height="220" rx="20" fill="#2563eb"/>
  <rect x="650" y="260" width="220" height="160" rx="18" fill="#0f172a" opacity="0.9"/>
  <rect x="280" y="280" width="120" height="14" rx="7" fill="#ffffff" opacity="0.9"/>
  <rect x="280" y="312" width="220" height="12" rx="6" fill="#ffffff" opacity="0.7"/>
  <rect x="280" y="338" width="180" height="12" rx="6" fill="#ffffff" opacity="0.7"/>
  <rect x="670" y="290" width="110" height="18" rx="9" fill="#ffffff" opacity="0.9"/>
  <rect x="670" y="324" width="140" height="12" rx="6" fill="#ffffff" opacity="0.7"/>
  <rect x="670" y="350" width="120" height="12" rx="6" fill="#ffffff" opacity="0.7"/>
  <circle cx="340" cy="500" r="44" fill="#fbbf24"/>
  <rect x="300" y="540" width="80" height="24" rx="10" fill="#0f172a" opacity="0.8"/>
  <rect x="560" y="520" width="170" height="26" rx="13" fill="#38bdf8"/>
  <rect x="560" y="556" width="130" height="16" rx="8" fill="#93c5fd"/>
  <rect x="780" y="520" width="120" height="24" rx="12" fill="#f59e0b"/>
  <rect x="780" y="556" width="90" height="16" rx="8" fill="#fdba74"/>
</svg>