<svg width="1200" height="800" viewBox="0 0 1200 800" xmlns="http://www.w3.org/2000/svg">
  <rect width="1200" height="800" rx="40" fill="#f8fbff"/>
  <circle cx="220" cy="220" r="120" fill="#38bdf8" opacity="0.16"/>
  <circle cx="970" cy="600" r="160" fill="#2563eb" opacity="0.12"/>
  <rect x="200" y="220" width="770" height="360" rx="34" fill="#ffffff"/>
  <rect x="250" y="270" width="300" height="220" rx="28" fill="#0f172a"/>
  <rect x="290" y="310" width="140" height="16" rx="8" fill="#ffffff" opacity="0.9"/>
  <rect x="290" y="344" width="180" height="14" rx="7" fill="#ffffff" opacity="0.7"/>
  <rect x="290" y="372" width="150" height="14" rx="7" fill="#ffffff" opacity="0.7"/>
  <circle cx="610" cy="390" r="86" fill="#fbbf24"/>
  <rect x="564" y="470" width="92" height="28" rx="14" fill="#2563eb"/>
  <rect x="710" y="310" width="220" height="140" rx="24" fill="#eef6ff"/>
  <rect x="740" y="340" width="120" height="16" rx="8" fill="#2563eb" opacity="0.9"/>
  <rect x="740" y="368" width="160" height="12" rx="6" fill="#38bdf8" opacity="0.7"/>
  <rect x="740" y="394" width="130" height="12" rx="6" fill="#38bdf8" opacity="0.7"/>
  <path d="M330 510h380" stroke="#93c5fd" stroke-width="14" stroke-linecap="round"/>
  <path d="M650 510c30-40 62-60 100-60" stroke="#2563eb" stroke-width="12" stroke-linecap="round" fill="none"/>
</svg>